Coordinates
version=1
nRows=14
nColumns=40
inDegrees=yes

Units are S.I. units (second, meters, Newtons, ...)
If the header above contains a line with 'inDegrees', this indicates whether rotational values are in degrees (yes) or radians (no).

endheader
time	pelvis_tilt	pelvis_list	pelvis_rotation	pelvis_tx	pelvis_ty	pelvis_tz	hip_flexion_r	hip_adduction_r	hip_rotation_r	knee_angle_r	knee_angle_r_beta	ankle_angle_r	subtalar_angle_r	mtp_angle_r	hip_flexion_l	hip_adduction_l	hip_rotation_l	knee_angle_l	knee_angle_l_beta	ankle_angle_l	subtalar_angle_l	mtp_angle_l	lumbar_extension	lumbar_bending	lumbar_rotation	arm_flex_r	arm_add_r	arm_rot_r	elbow_flex_r	pro_sup_r	wrist_flex_r	wrist_dev_r	arm_flex_l	arm_add_l	arm_rot_l	elbow_flex_l	pro_sup_l	wrist_flex_l	wrist_dev_l
      0.90000000	      1.32069540	      1.06164737	     -0.56568390	     -0.26264431	      1.02172962	     -0.72718872	      3.45601927	      4.56658021	     -0.63865918	     12.16045437	      0.21223997	      0.70651533	      0.00000000	      0.00000000	     11.04378120	      0.96246063	      4.50162028	     83.49944716	      1.45734028	     -3.59942463	      0.00000000	      0.00000000	    -18.52613343	     -0.25243165	      4.33539734	     75.93443256	    -16.92316748	     17.77911102	     50.24979845	     87.51812678	      0.00000000	      0.00000000	     81.67103250	     -7.83843966	     25.78636997	     43.46875699	     86.82413781	      0.00000000	      0.00000000
      0.90500000	      1.31707580	      1.05607991	     -0.55858841	     -0.26280525	      1.02159495	     -0.72719416	      3.52373360	      4.58813145	     -0.69660073	     12.26728146	      0.21410445	      0.72948783	      0.00000000	      0.00000000	     11.04102286	      0.96187995	      4.51069137	     83.50893293	      1.45750583	     -3.58856011	      0.00000000	      0.00000000	    -18.55521178	     -0.27424287	      4.34313485	     75.94996450	    -17.01596189	     17.88515008	     50.33631851	     87.61149676	      0.00000000	      0.00000000	     81.76665322	     -7.95692726	     26.27174945	     43.58695235	     86.55855814	      0.00000000	      0.00000000
      0.91000000	      1.31327334	      1.14087997	     -0.58321040	     -0.26300110	      1.02142891	     -0.72724677	      3.53546013	      4.51581218	     -0.42212288	     12.27378525	      0.21421796	      0.95225311	      0.00000000	      0.00000000	     11.03606114	      1.09211301	      4.51309797	     83.50278889	      1.45739860	     -3.58913950	      0.00000000	      0.00000000	    -18.56444142	     -0.38188439	      4.27257683	     75.99533783	    -16.88878065	     17.79529788	     50.21197990	     87.68194224	      0.00000000	      0.00000000	     81.76309224	     -7.93662491	     26.03761774	     43.52882629	     86.40190425	      0.00000000	      0.00000000
      0.91500000	      1.34903329	      1.16773925	     -0.56251930	     -0.26319762	      1.02136081	     -0.72728493	      3.55395921	      4.49937687	     -0.48370101	     12.36716588	      0.21584776	      1.01975630	      0.00000000	      0.00000000	     11.00332270	      1.11998284	      4.51666729	     83.51919862	      1.45768500	     -3.61273336	      0.00000000	      0.00000000	    -18.63763230	     -0.43160584	      4.23035169	     75.99127606	    -16.84965798	     17.65760420	     50.23575811	     87.66200340	      0.00000000	      0.00000000	     81.78599503	     -7.91342042	     25.97031645	     43.55019483	     86.47478764	      0.00000000	      0.00000000
      0.92000000	      1.30954659	      1.16717678	     -0.53890523	     -0.26341857	      1.02109430	     -0.72732426	      3.66216351	      4.51192764	     -0.48405731	     12.48567077	      0.21791606	      1.14919817	      0.00000000	      0.00000000	     11.05853237	      1.13376771	      4.55525670	     83.56107266	      1.45841584	     -3.60243243	      0.00000000	      0.00000000	    -18.61890807	     -0.43356923	      4.18285902	     76.06461111	    -16.85508765	     17.82124860	     50.16650653	     87.54010421	      0.00000000	      0.00000000	     81.82138772	     -7.91840908	     25.89993288	     43.47971938	     86.77268104	      0.00000000	      0.00000000
      0.92500000	      1.32112125	      1.19858268	     -0.54033883	     -0.26359872	      1.02094825	     -0.72734530	      3.73377783	      4.48174187	     -0.46812473	     12.64332556	      0.22066766	      1.26746814	      0.00000000	      0.00000000	     11.04255905	      1.16551466	      4.53919965	     83.56896334	      1.45855356	     -3.60100206	      0.00000000	      0.00000000	    -18.66252801	     -0.48436044	      4.13890607	     76.09435621	    -16.86668055	     17.91461074	     50.21116067	     87.55130858	      0.00000000	      0.00000000	     81.87346164	     -8.02256727	     26.09535569	     43.57242494	     86.71326643	      0.00000000	      0.00000000
      0.93000000	      1.29660356	      1.19580889	     -0.49767489	     -0.26378076	      1.02075078	     -0.72746094	      3.81282291	      4.48464222	     -0.46307011	     12.72368554	      0.22207021	      1.32940983	      0.00000000	      0.00000000	     11.07686987	      1.18862483	      4.60220024	     83.60626221	      1.45920455	     -3.58028154	      0.00000000	      0.00000000	    -18.65497410	     -0.48251401	      4.10639210	     76.12706432	    -16.87154191	     17.91120947	     50.16408233	     87.49619308	      0.00000000	      0.00000000	     81.86043441	     -7.89296892	     25.78723587	     43.47244202	     86.86842379	      0.00000000	      0.00000000
      0.93500000	      1.29503034	      1.22881920	     -0.45224150	     -0.26407204	      1.02062306	     -0.72768445	      3.89796212	      4.43567636	     -0.45105144	     12.86507199	      0.22453786	      1.42470821	      0.00000000	      0.00000000	     11.08613384	      1.26469153	      4.65905390	     83.61741496	      1.45939920	     -3.56915686	      0.00000000	      0.00000000	    -18.69888691	     -0.50971109	      4.04213257	     76.17107563	    -16.87573523	     17.90078839	     50.17080907	     87.53069815	      0.00000000	      0.00000000	     81.90568241	     -7.90405340	     25.82047333	     43.49367954	     86.79301368	      0.00000000	      0.00000000
      0.94000000	      1.26036984	      1.27318371	     -0.41348281	     -0.26430599	      1.02043392	     -0.72780019	      4.03638997	      4.37771864	     -0.46885745	     13.05826904	      0.22790979	      1.58236950	      0.00000000	      0.00000000	     11.12671076	      1.34044820	      4.70625768	     83.62560001	      1.45954206	     -3.58317457	      0.00000000	      0.00000000	    -18.69132463	     -0.55915808	      3.98730321	     76.19207910	    -16.88529678	     17.91868807	     50.15532561	     87.52096838	      0.00000000	      0.00000000	     81.93641859	     -7.91761165	     25.90281763	     43.51295031	     86.80755888	      0.00000000	      0.00000000
      0.94500000	      1.24367628	      1.25587750	     -0.37180412	     -0.26452322	      1.02026720	     -0.72792284	      4.13279289	      4.38298728	     -0.49728693	     13.18872802	      0.23018673	      1.62129022	      0.00000000	      0.00000000	     11.15301071	      1.33771236	      4.76128103	     83.65289884	      1.46001851	     -3.60056786	      0.00000000	      0.00000000	    -18.70009077	     -0.54084973	      3.95861755	     76.21388333	    -16.89360281	     17.89888705	     50.14241173	     87.52485959	      0.00000000	      0.00000000	     81.92386709	     -7.85037589	     25.72060685	     43.50492962	     86.81186240	      0.00000000	      0.00000000
      0.95000000	      1.24437871	      1.27243244	     -0.33808207	     -0.26467218	      1.02016470	     -0.72798155	      4.21695770	      4.35739687	     -0.53782047	     13.35089167	      0.23301702	      1.75146567	      0.00000000	      0.00000000	     11.13613090	      1.37114931	      4.79750946	     83.63184865	      1.45965112	     -3.63076375	      0.00000000	      0.00000000	    -18.72858694	     -0.56483422	      3.90291134	     76.22941580	    -16.90461603	     17.94428113	     50.17972707	     87.56522192	      0.00000000	      0.00000000	     81.93446920	     -7.90622258	     25.82676152	     43.58592263	     86.71370804	      0.00000000	      0.00000000
      0.95500000	      1.19604269	      1.25850664	     -0.28723813	     -0.26492894	      1.01992951	     -0.72810384	      4.37467281	      4.35605799	     -0.57303310	     13.53836707	      0.23628908	      1.80683399	      0.00000000	      0.00000000	     11.21768890	      1.35954742	      4.83530343	     83.68632757	      1.46060196	     -3.64091545	      0.00000000	      0.00000000	    -18.69996560	     -0.54646358	      3.86810516	     76.24226043	    -16.89069704	     17.84516468	     50.13865251	     87.57628345	      0.00000000	      0.00000000	     81.95223035	     -7.83801009	     25.72754870	     43.50548657	     86.70794945	      0.00000000	      0.00000000
      0.96000000	      1.14667729	      1.24155175	     -0.25565828	     -0.26518848	      1.01974121	     -0.72823368	      4.53077699	      4.35453479	     -0.59284495	     13.71449971	      0.23936318	      1.84473172	      0.00000000	      0.00000000	     11.28232945	      1.35586055	      4.87663041	     83.70999994	      1.46101512	     -3.64310260	      0.00000000	      0.00000000	    -18.67593804	     -0.52105665	      3.82648932	     76.25925092	    -16.91289192	     17.93449848	     50.17802825	     87.51216920	      0.00000000	      0.00000000	     81.94934311	     -7.81996829	     25.60804666	     43.47170691	     86.82880381	      0.00000000	      0.00000000
      0.96500000	      1.11431255	      1.24881003	     -0.22317962	     -0.26541860	      1.01959351	     -0.72837922	      4.66252984	      4.32797949	     -0.59291667	     13.88754671	      0.24238342	      1.92731050	      0.00000000	      0.00000000	     11.32611767	      1.37806614	      4.89398433	     83.72052495	      1.46119881	     -3.67785722	      0.00000000	      0.00000000	    -18.68273790	     -0.52820059	      3.82560932	     76.27464382	    -16.96475665	     17.91626631	     50.21475337	     87.57266737	      0.00000000	      0.00000000	     81.95465990	     -7.81851937	     25.67840961	     43.56026465	     86.70782597	      0.00000000	      0.00000000
